<svg width="16" height="17" viewBox="0 0 16 17" fill="none" xmlns="http://www.w3.org/2000/svg">
<path d="M15 7.21045H9V1.21045C9 0.945233 8.89464 0.690879 8.70711 0.503343C8.51957 0.315806 8.26522 0.210449 8 0.210449C7.73478 0.210449 7.48043 0.315806 7.29289 0.503343C7.10536 0.690879 7 0.945233 7 1.21045V7.21045H1C0.734784 7.21045 0.48043 7.31581 0.292893 7.50334C0.105357 7.69088 0 7.94523 0 8.21045C0 8.47567 0.105357 8.73002 0.292893 8.91756C0.48043 9.10509 0.734784 9.21045 1 9.21045H7V15.2104C7 15.4757 7.10536 15.73 7.29289 15.9176C7.48043 16.1051 7.73478 16.2104 8 16.2104C8.26522 16.2104 8.51957 16.1051 8.70711 15.9176C8.89464 15.73 9 15.4757 9 15.2104V9.21045H15C15.2652 9.21045 15.5196 9.10509 15.7071 8.91756C15.8946 8.73002 16 8.47567 16 8.21045C16 7.94523 15.8946 7.69088 15.7071 7.50334C15.5196 7.31581 15.2652 7.21045 15 7.21045Z" fill="white"/>
</svg>
