<svg width="24" height="25" viewBox="0 0 24 25" fill="none" xmlns="http://www.w3.org/2000/svg">
<path d="M12 17.6104C13.5 17.6104 14.775 17.0854 15.825 16.0354C16.875 14.9854 17.4 13.7104 17.4 12.2104C17.4 10.7104 16.875 9.43545 15.825 8.38545C14.775 7.33545 13.5 6.81045 12 6.81045C10.5 6.81045 9.225 7.33545 8.175 8.38545C7.125 9.43545 6.6 10.7104 6.6 12.2104C6.6 13.7104 7.125 14.9854 8.175 16.0354C9.225 17.0854 10.5 17.6104 12 17.6104ZM12 13.4104C11.66 13.4104 11.375 13.2954 11.145 13.0654C10.915 12.8354 10.8 12.5504 10.8 12.2104C10.8 11.8704 10.915 11.5854 11.145 11.3554C11.375 11.1254 11.66 11.0104 12 11.0104C12.34 11.0104 12.625 11.1254 12.855 11.3554C13.085 11.5854 13.2 11.8704 13.2 12.2104C13.2 12.5504 13.085 12.8354 12.855 13.0654C12.625 13.2954 12.34 13.4104 12 13.4104ZM12 24.2104C10.34 24.2104 8.78 23.8954 7.32 23.2654C5.86 22.6354 4.59 21.7804 3.51 20.7004C2.43 19.6204 1.575 18.3504 0.945 16.8904C0.315 15.4304 0 13.8704 0 12.2104C0 10.5504 0.315 8.99045 0.945 7.53045C1.575 6.07045 2.43 4.80045 3.51 3.72045C4.59 2.64045 5.86 1.78545 7.32 1.15545C8.78 0.525449 10.34 0.210449 12 0.210449C13.66 0.210449 15.22 0.525449 16.68 1.15545C18.14 1.78545 19.41 2.64045 20.49 3.72045C21.57 4.80045 22.425 6.07045 23.055 7.53045C23.685 8.99045 24 10.5504 24 12.2104C24 13.8704 23.685 15.4304 23.055 16.8904C22.425 18.3504 21.57 19.6204 20.49 20.7004C19.41 21.7804 18.14 22.6354 16.68 23.2654C15.22 23.8954 13.66 24.2104 12 24.2104ZM12 21.8104C14.68 21.8104 16.95 20.8804 18.81 19.0204C20.67 17.1604 21.6 14.8904 21.6 12.2104C21.6 9.53045 20.67 7.26045 18.81 5.40045C16.95 3.54045 14.68 2.61045 12 2.61045C9.32 2.61045 7.05 3.54045 5.19 5.40045C3.33 7.26045 2.4 9.53045 2.4 12.2104C2.4 14.8904 3.33 17.1604 5.19 19.0204C7.05 20.8804 9.32 21.8104 12 21.8104Z" fill="black"/>
</svg>
