<svg width="24" height="22" viewBox="0 0 24 22" fill="none" xmlns="http://www.w3.org/2000/svg">
<path d="M2.4 21.6C1.74 21.6 1.175 21.365 0.705 20.895C0.235 20.425 0 19.86 0 19.2V2.4C0 1.74 0.235 1.175 0.705 0.705C1.175 0.235 1.74 0 2.4 0H21.6C22.26 0 22.825 0.235 23.295 0.705C23.765 1.175 24 1.74 24 2.4V19.2C24 19.86 23.765 20.425 23.295 20.895C22.825 21.365 22.26 21.6 21.6 21.6H2.4ZM2.4 19.2H21.6V2.4H2.4V19.2ZM4.8 16.8H19.2V14.4H4.8V16.8ZM4.8 12H9.6V4.8H4.8V12ZM12 12H19.2V9.6H12V12ZM12 7.2H19.2V4.8H12V7.2Z" fill="black"/>
</svg>
