<svg width="24" height="21" viewBox="0 0 24 21" fill="none" xmlns="http://www.w3.org/2000/svg">
<path d="M19.5789 7.57895H24V10.1053H21.4737V17.0526C21.4737 17.9368 21.1684 18.6842 20.5579 19.2947C19.9474 19.9053 19.2 20.2105 18.3158 20.2105C17.4316 20.2105 16.6842 19.9053 16.0737 19.2947C15.4632 18.6842 15.1579 17.9368 15.1579 17.0526C15.1579 16.1684 15.4632 15.4211 16.0737 14.8105C16.6842 14.2 17.4316 13.8947 18.3158 13.8947C18.4842 13.8947 18.6737 13.9105 18.8842 13.9421C19.0947 13.9737 19.3263 14.0421 19.5789 14.1474V7.57895ZM0 20.2105V16.6737C0 15.9368 0.184211 15.2737 0.552632 14.6842C0.921053 14.0947 1.41053 13.6421 2.02105 13.3263C3.32632 12.6737 4.65263 12.1842 6 11.8579C7.34737 11.5316 8.71579 11.3684 10.1053 11.3684C10.9895 11.3684 11.8684 11.4368 12.7421 11.5737C13.6158 11.7105 14.4947 11.9158 15.3789 12.1895C14.9579 12.4421 14.5789 12.7474 14.2421 13.1053C13.9053 13.4632 13.6105 13.8526 13.3579 14.2737C12.8105 14.1474 12.2684 14.0526 11.7316 13.9895C11.1947 13.9263 10.6526 13.8947 10.1053 13.8947C8.90526 13.8947 7.72632 14.0421 6.56842 14.3368C5.41053 14.6316 4.27368 15.0526 3.15789 15.6C2.96842 15.7053 2.81579 15.8526 2.7 16.0421C2.58421 16.2316 2.52632 16.4421 2.52632 16.6737V17.6842H12.6632C12.7053 18.1053 12.8053 18.5263 12.9632 18.9474C13.1211 19.3684 13.3368 19.7895 13.6105 20.2105H0ZM10.1053 10.1053C8.71579 10.1053 7.52632 9.61053 6.53684 8.62105C5.54737 7.63158 5.05263 6.44211 5.05263 5.05263C5.05263 3.66316 5.54737 2.47368 6.53684 1.48421C7.52632 0.494737 8.71579 0 10.1053 0C11.4947 0 12.6842 0.494737 13.6737 1.48421C14.6632 2.47368 15.1579 3.66316 15.1579 5.05263C15.1579 6.44211 14.6632 7.63158 13.6737 8.62105C12.6842 9.61053 11.4947 10.1053 10.1053 10.1053ZM10.1053 7.57895C10.8 7.57895 11.3947 7.33158 11.8895 6.83684C12.3842 6.34211 12.6316 5.74737 12.6316 5.05263C12.6316 4.3579 12.3842 3.76316 11.8895 3.26842C11.3947 2.77368 10.8 2.52632 10.1053 2.52632C9.41053 2.52632 8.81579 2.77368 8.32105 3.26842C7.82632 3.76316 7.57895 4.3579 7.57895 5.05263C7.57895 5.74737 7.82632 6.34211 8.32105 6.83684C8.81579 7.33158 9.41053 7.57895 10.1053 7.57895Z" fill="black"/>
</svg>
