<svg width="41" height="40" viewBox="0 0 41 40" fill="none" xmlns="http://www.w3.org/2000/svg">
<g clip-path="url(#clip0_236_289)">
<path d="M38.918 0.371094H39.1133L39.4258 0.410156L39.6992 0.507812L39.9531 0.664062L40.1484 0.839844L40.3242 1.09375L40.4219 1.28906L40.4805 1.48438L40.5 1.50391V2.1875H40.4609L40.4219 2.38281L40.2656 2.67578L40.0508 2.92969L39.8555 3.08594L39.543 3.24219L39.0742 3.39844L38.9375 3.47656L38.918 3.51562H38.8789L38.8398 3.59375L38.5859 4.02344L38.293 4.55078L38.1758 4.74609L38.0586 4.96094L37.7656 5.48828L37.2188 6.44531L37.1016 6.66016L36.5938 7.55859L36.4375 7.75391L36.2617 7.91016L36.0664 8.00781L35.8125 8.06641H35.5586L35.2656 7.98828L34.9922 7.89062L34.6602 7.85156L34.4062 7.87109L34.0938 7.96875L33.8789 8.08594L33.625 8.30078L32.668 9.25781L32.6484 9.29688H32.6094V9.33594H32.5703V9.375H32.5312L32.4922 9.45312L31.75 10.1953L31.7305 10.2344H31.6914L31.6523 10.3125L30.9102 11.0547L30.8125 11.1719L29.8359 12.1484L29.6992 12.3047L29.0352 12.9688L29.0156 13.0078H28.9766V13.0469H28.9375L28.8984 13.125L28.0781 13.9453L28.0586 13.9844H28.0195L27.9805 14.0625L27.2383 14.8047L27.1211 14.9414H27.082L27.043 15.0195L26.2422 15.8203L26.1445 15.9375H26.1055L26.0664 16.0156L25.4023 16.6797L25.3828 16.7188H25.3438V16.7578H25.3047V16.7969H25.2656L25.2266 16.875L24.4844 17.6172L24.4648 17.6562H24.4258L24.3867 17.7344L23.6445 18.4766L23.5273 18.6133H23.4883L23.4492 18.6914L22.5703 19.5703L22.4336 19.7266L21.7695 20.3906L21.75 20.4297H21.7109V20.4688H21.6719L21.6328 20.5469L20.8906 21.2891L20.793 21.4062H20.7539L20.7148 21.4844L19.9727 22.2266L19.8555 22.3633H19.8164L19.7773 22.4414L18.9766 23.2422L18.8789 23.3594H18.8398L18.8008 23.4375L18.1367 24.1016L18.1172 24.1406H18.0781L18.0391 24.2188H18L17.9609 24.2969L17.2969 24.9609L17.1992 25.0781H17.1602L17.1211 25.1562L16.2031 26.0742L16.0859 26.2305L15.9883 26.5625L15.9688 26.8164L16.0273 27.0703L16.1641 27.2852L16.3008 27.4219L16.5352 27.5391L16.7109 27.5781H17.1406L17.6289 27.4805L18.3516 27.207L18.5664 27.1094L18.8398 27.0312H19.1523L19.4062 27.1094L19.6211 27.2461L19.7969 27.4219L19.9336 27.6367L20.0312 27.8516L20.0898 28.0859L20.1094 28.2422V28.457L20.0703 28.7695L19.9727 29.082L19.7969 29.4141L19.6211 29.6484L19.4062 29.8828L19.1523 30.0977L18.8398 30.332L18.3516 30.625L18.0781 30.7812L17.7852 30.9375L17.3359 31.1523L16.9453 31.3281L16.4961 31.5234L16.1641 31.6797L15.832 31.8945L15.5586 32.1289L15.3047 32.3828L15.1094 32.6562L14.9336 32.9492L14.7773 33.3203L14.6016 33.9062L14.4062 34.6289L14.25 35.0977L14.0156 35.7227L13.7031 36.3672L13.5859 36.582L13.2734 37.0703L12.8633 37.6758L12.6289 37.9492L12.3945 38.2031L12.2383 38.3594L12.082 38.4961L11.6914 38.7891L11.2617 39.043L10.8125 39.2578L10.3828 39.4141L9.89453 39.5312L9.52344 39.5898L9.30859 39.6094H8.52734L8.03906 39.5508L7.55078 39.4336L7.14062 39.2969L6.75 39.1211L6.41797 38.9453L6.06641 38.7109L5.8125 38.5156L5.59766 38.3203L5.44141 38.1836L1.82812 34.5703L1.65234 34.3555L1.49609 34.1797L1.24219 33.8086L1.02734 33.4375L0.851562 33.0664L0.714844 32.6953L0.597656 32.2461L0.5 31.7773V30.5859L0.558594 30.332L0.675781 29.8047L0.8125 29.3945L0.96875 29.043L1.16406 28.6719L1.39844 28.3203L1.59375 28.0664L1.80859 27.832L1.94531 27.6758L2.17969 27.4609L2.39453 27.2852L2.74609 27.0312L3.01953 26.8555L3.42969 26.6602L3.83984 26.5039L4.5625 26.2891L6.53516 25.6055L7.00391 25.4102L7.45312 25.1758L7.6875 25.0195L8 24.7852L8.19531 24.6094L8.35156 24.4727L8.48828 24.3359L8.625 24.1797L8.82031 23.9453L9.09375 23.5352L9.32812 23.0859L9.54297 22.5781L9.81641 21.9141L10.0508 21.3477L10.3047 20.8594L10.5781 20.4102L10.7539 20.1562L10.9688 19.8633L11.2031 19.5898L11.3789 19.3945L11.5938 19.1797H11.6328V19.1406L12.1797 18.7109L12.5312 18.457L12.8633 18.2227L13.1562 18.0273L13.4102 17.8711L13.8008 17.6367L14.3281 17.3828L14.9141 17.1875L15.2461 17.1289H15.7734L16.0078 17.1875L16.3203 17.3438L16.5938 17.5781L16.7305 17.8125L16.75 17.8906V18.1836L16.6523 18.4375L16.5156 18.6719L16.3008 18.9258L16.125 19.1406L15.8125 19.4531L15.6562 19.5898L15.4609 19.7656L15.1875 19.9805L14.9727 20.1562L14.6992 20.3711L14.3867 20.625L14.2305 20.8203L14.0742 21.0938L13.957 21.4258L13.918 21.6406V21.9922L13.9766 22.207L14.0742 22.4023L14.25 22.5977L14.4062 22.6953L14.5039 22.7344L14.8945 22.793L15.0508 22.6562L15.1484 22.5586H15.1875L15.2266 22.4805L15.3828 22.3438L15.9492 21.7773L16.1055 21.6406L16.6328 21.1133H16.6719V21.0742L16.8281 20.9375L17.2578 20.5078L17.4141 20.3711L18.0391 19.7461L18.1953 19.6094L18.7617 19.043L18.918 18.9062L19.4844 18.3398H19.5234V18.3008H19.5625V18.2617L19.7188 18.125L20.0508 17.793L20.207 17.6562L20.7734 17.0898H20.8125L20.8516 17.0117L21.0078 16.875L21.5938 16.2891H21.6328V16.25L21.7891 16.1133L22.2969 15.6055H22.3359V15.5664H22.375V15.5273L22.5312 15.3906L22.8828 15.0391L23.0391 14.9023L23.6641 14.2773L23.8203 14.1406L24.4062 13.5547H24.4453L24.4648 13.4961L24.6211 13.3594L25.1484 12.832H25.1875V12.793L25.3438 12.6562L25.6953 12.3047L25.8516 12.168L26.4766 11.543L26.6328 11.4062L27.2188 10.8203H27.2578L27.2773 10.7617L27.4336 10.625L27.9609 10.0977H28V10.0586L28.1562 9.92188L28.5664 9.51172L28.7227 9.375L29.2891 8.80859H29.3281L29.3672 8.73047L29.5234 8.59375L30.0898 8.02734L30.2461 7.89062L30.7734 7.36328H30.8125V7.32422L30.9688 7.1875L31.1836 6.97266L31.3594 6.71875L31.4961 6.38672L31.6133 6.05469L31.7305 5.82031L31.9062 5.58594L32.043 5.44922L32.2773 5.27344L32.5312 5.07812L32.4531 4.94141L32.2773 4.6875L32.2188 4.55078V4.39453L32.2773 4.27734L32.4141 4.16016L32.4727 4.14062H32.668L32.8047 4.21875L32.9414 4.375L33.0977 4.60938L33.1758 4.57031L33.4492 4.35547L33.7617 4.10156L34.0156 3.90625L34.0938 3.82812L33.957 3.61328L33.8203 3.41797L33.7812 3.32031V3.18359L33.8594 3.02734L33.9766 2.92969L34.0156 2.91016H34.25L34.3672 2.98828L34.5039 3.14453L34.6406 3.33984V3.37891L34.7383 3.33984L35.0312 3.10547L35.3047 2.89062L35.6562 2.61719L35.6172 2.51953L35.4023 2.22656L35.3242 2.03125L35.3633 1.83594L35.4805 1.69922L35.6367 1.64062L35.793 1.66016L35.9102 1.73828L36.0664 1.91406L36.2227 2.14844L36.3594 2.07031L36.5938 1.875L37.1406 1.44531L37.2188 1.38672L37.1797 1.28906L36.9453 0.957031L36.8867 0.820312L36.9062 0.644531L37.0039 0.488281L37.1602 0.410156H37.3164L37.4727 0.488281L37.6484 0.703125L37.7852 0.898438L37.8633 0.878906L38.1172 0.683594L38.3711 0.527344L38.6641 0.410156L38.918 0.371094ZM38.957 1.07422L38.7812 1.11328L38.5273 1.25L38.2148 1.50391L37.9023 1.73828L37.668 1.93359L37.3945 2.14844L37.1406 2.34375L36.7891 2.61719L36.4766 2.87109L36.1445 3.125L35.6562 3.51562L35.4023 3.71094L35.1094 3.94531L34.5625 4.375L34.2109 4.64844L33.8984 4.90234L33.5664 5.15625L33.2734 5.39062L33.0977 5.52734L32.8242 5.74219L32.5117 5.99609L32.375 6.11328L32.2188 6.44531L32.082 6.81641L31.9258 7.12891L31.7305 7.40234L31.4961 7.65625L31.2617 7.89062L31.2031 7.92969V7.96875L31.125 8.00781L30.5586 8.57422L30.4805 8.63281V8.67188L30.4023 8.71094L29.9141 9.19922L29.875 9.21875V9.25781L29.7969 9.29688L29.2695 9.82422L29.2305 9.84375V9.88281H29.1914V9.92188L29.1133 9.96094L28.5273 10.5469L28.3906 10.6641V10.7031L28.3125 10.7422L27.707 11.3477L27.668 11.3672V11.4062L27.5898 11.4453L27.1016 11.9336L27.0625 11.9531V11.9922H27.0234V12.0312L26.9453 12.0703L26.418 12.5977L26.3789 12.6172V12.6562L26.3008 12.6953L25.6367 13.3594L25.5781 13.3984V13.4375L25.5 13.4766L24.8945 14.082L24.8555 14.1016V14.1406L24.7773 14.1797L24.2891 14.668L24.25 14.6875V14.7266H24.2109V14.7656L24.1328 14.8047L23.5664 15.3711L23.4102 15.5078L22.8242 16.0938L22.7656 16.1328V16.1719L22.6875 16.2109V16.25L22.6094 16.2891L22.043 16.8555L21.8867 16.9922L21.3984 17.4805L21.3594 17.5V17.5391L21.2812 17.5781L20.7539 18.1055L20.6758 18.1641V18.2031L20.5977 18.2422L20.0117 18.8281L19.875 18.9453V18.9844L19.7969 19.0234L19.2305 19.5898L19.1523 19.6484V19.6875L19.0742 19.7266L18.5859 20.2148L18.5469 20.2344V20.2734L18.4688 20.3125L17.9023 20.8789L17.8633 20.8984V20.9375L17.7852 20.9766L17.1211 21.6406L17.0625 21.6797V21.7188L16.9844 21.7578L16.3789 22.3633L16.3398 22.3828V22.4219L16.2617 22.4609L15.7734 22.9492L15.7344 22.9688V23.0078H15.6953V23.0469L15.6172 23.0859L15.0508 23.6523L14.8945 23.7891L14.3086 24.375L14.25 24.4141V24.4531L14.1719 24.4922L13.5664 25.0977L13.5273 25.1172V25.1562L13.4492 25.1953L13.2539 25.3906L13.3711 25.5273L14.543 26.6992L14.6016 26.7188L14.8164 26.5039V26.4648L14.875 26.4453L15.0117 26.2891L15.6562 25.6445V25.6055L15.7344 25.5664V25.5273H15.7734L15.9102 25.3711L16.5547 24.7266V24.6875L16.6328 24.6484L16.7695 24.4922L17.4922 23.7695V23.7305H17.5312V23.6914H17.5703V23.6523H17.6094L17.7461 23.4961L18.5664 22.6758V22.6367L18.625 22.6172L18.7617 22.4609L19.25 21.9727V21.9336L19.3281 21.8945V21.8555H19.3672V21.8164H19.4062L19.543 21.6602L20.2266 20.9766L20.3633 20.8203L21.2422 19.9414V19.9023H21.2812L21.418 19.7461L22.2383 18.9258V18.8867L22.2969 18.8672L22.4336 18.7109L23 18.1445V18.1055H23.0391V18.0664H23.0781L23.2148 17.9102L23.8984 17.2266L24.0352 17.0703L24.9141 16.1914V16.1523H24.9531L25.0898 15.9961L25.9102 15.1758V15.1367L25.9688 15.1172L26.1055 14.9609L26.6719 14.3945V14.3555H26.7109V14.3164H26.75L26.8867 14.1602L27.5703 13.4766V13.4375L27.6484 13.3984L27.7852 13.2422L28.5859 12.4414V12.4023L28.6641 12.3633V12.3242H28.7031L28.8398 12.168L29.582 11.4258V11.3867L29.6406 11.3672L29.7773 11.2109L30.3438 10.6445V10.6055H30.3828V10.5664H30.4219V10.5273H30.4609L30.5977 10.3711L31.2422 9.72656L31.3789 9.57031L32.2578 8.69141V8.65234H32.2969L32.4141 8.51562L33.1953 7.73438L33.4102 7.55859L33.6641 7.40234L33.957 7.26562L34.25 7.1875L34.6016 7.14844L34.8945 7.16797L35.207 7.22656L35.6367 7.36328H35.7734L35.8906 7.30469L36.0078 7.16797L36.2617 6.69922L36.7305 5.87891L37.0039 5.39062L37.5117 4.49219L37.7852 4.00391L38.0391 3.55469L38.2148 3.26172L38.3711 3.04688L38.5469 2.89062L38.8203 2.73438L39.2891 2.57812L39.4844 2.48047L39.6016 2.38281L39.7188 2.20703L39.7773 2.07031L39.7969 1.95312V1.69922L39.7383 1.50391L39.6211 1.30859L39.4453 1.17188L39.25 1.09375L39.1523 1.07422H38.957ZM15.3242 17.832L15.0117 17.8906L14.6211 18.0273L14.0547 18.3008L13.625 18.5547L13.332 18.75L13 18.9844L12.6484 19.2383L12.3945 19.4336L12.1797 19.6094L11.9258 19.8438L11.6719 20.1172L11.5156 20.3125L11.2422 20.6836L10.9102 21.2305L10.6758 21.6797L10.3438 22.4805L10.0508 23.1836L9.89453 23.5352L9.64062 23.9844L9.46484 24.2383L9.23047 24.5508L9.01562 24.7852L8.87891 24.9414L8.72266 25.0977L8.50781 25.2734L8.35156 25.4102L8.01953 25.6445L7.66797 25.8594L7.25781 26.0742L6.73047 26.2891L5.8125 26.6016L5.08984 26.8555L4.42578 27.0703L4.01562 27.1875L3.625 27.3438L3.21484 27.5781L2.92188 27.7734L2.70703 27.9492L2.51172 28.125L2.35547 28.2617L2.16016 28.4766L1.90625 28.8281L1.71094 29.1406L1.49609 29.5898L1.32031 30.1172L1.24219 30.5078L1.20312 30.7812V31.6016L1.28125 32.0898L1.41797 32.5781L1.55469 32.9102L1.71094 33.2227L1.86719 33.4961L2.10156 33.8086L2.33594 34.082L6.125 37.8711L6.33984 38.0469L6.67188 38.2812L7.10156 38.5156L7.47266 38.6719L7.84375 38.7891L8.33203 38.8867L8.78125 38.9258H9.11328L9.62109 38.8672L10.0703 38.7695L10.5391 38.6133L10.9492 38.418L11.2617 38.2227L11.5352 38.0273L11.8086 37.793L12.0625 37.5391L12.2383 37.3242L12.375 37.1484L12.5312 36.9141L12.707 36.6602L12.9023 36.3672L13.1562 35.8984L13.3906 35.3711L13.5469 34.9805L13.7812 34.2578L14.0547 33.2422L14.2109 32.832L14.3672 32.5195L14.6016 32.1484L14.875 31.8164L15.1484 31.543L15.3633 31.3672L15.5586 31.2305L15.8125 31.0742L16.125 30.918L16.5547 30.7227L17.1406 30.4688L17.8047 30.1367L18.3516 29.8047L18.5859 29.6484L18.8984 29.3945L19.0938 29.1992L19.2305 29.0039L19.3281 28.8086L19.3867 28.6133L19.4062 28.418L19.3672 28.125L19.2891 27.9102L19.1914 27.793L19.0742 27.7344H18.918L18.5859 27.8711L18.2148 28.0273L17.7461 28.1836L17.2578 28.2812L17.082 28.3008H16.8086L16.4375 28.2422L16.0859 28.1055L15.8125 27.9102L15.6562 27.7734L15.4219 27.4414L15.2852 27.0312L15.1484 27.1484L14.6797 27.6172L14.6211 27.6953L14.543 27.6562L12.3555 25.4688H12.3164L12.2969 25.3711L12.375 25.2734L12.5312 25.1367L13 24.668L13.1562 24.5312L13.8203 23.8672L13.8594 23.8477V23.8086L13.9375 23.7695V23.7305L14.0156 23.6914L14.2891 23.418L14.2305 23.3789L13.957 23.2422L13.7617 23.0859L13.5664 22.8906L13.3906 22.6172L13.293 22.3828L13.2148 22.0703V21.6016L13.293 21.1719L13.4492 20.7812L13.6445 20.4297L13.8008 20.2344L13.9375 20.0977V20.0586L14.0156 20.0195L14.2891 19.7852L14.5625 19.5703L14.8945 19.2969L15.0898 19.1406L15.2852 18.9648L15.3438 18.9258V18.8867L15.4219 18.8477L15.8125 18.457L16.0469 18.125L16.0273 18.0078L15.8516 17.8906L15.6367 17.832H15.3242Z" fill="black"/>
<path d="M9.81641 26.8359L9.89453 26.8555L12.1211 29.082L12.082 29.1602L10.832 30.4102L10.7344 30.3516L8.54688 28.1641V28.1055L8.625 28.0273H8.66406V27.9883L8.82031 27.8516L8.85938 27.793H8.89844V27.7539H8.9375V27.7148H8.97656V27.6758H9.01562V27.6367H9.05469V27.5977H9.09375V27.5586H9.13281V27.5195H9.17188V27.4805H9.21094V27.4414H9.25V27.4023H9.28906V27.3633H9.32812V27.3242H9.36719V27.2852H9.40625L9.44531 27.207L9.60156 27.0508H9.64062V27.0117H9.67969L9.71875 26.9336H9.75781L9.79688 26.8555L9.81641 26.8359ZM9.81641 27.832L9.71875 27.9297V27.9688L9.66016 27.9883L9.54297 28.125L9.58203 28.2031L10.7734 29.3945L10.832 29.4141L11.125 29.1211L11.0859 29.043L9.89453 27.8516L9.81641 27.832Z" fill="black"/>
<path d="M9.36719 29.3359L9.44531 29.3555L11.6328 31.543L11.6719 31.5625L11.6523 31.6406L11.1445 32.1484L11.0469 32.2656L10.9102 32.3828L10.8125 32.5L10.6562 32.6367L10.3828 32.9102L10.2461 32.793L8.11719 30.6641L8.13672 30.5859L9.34766 29.375L9.36719 29.3359ZM9.38672 30.332L9.23047 30.4688L9.09375 30.625L9.13281 30.7031H9.17188L9.21094 30.7812L9.28906 30.8594H9.32812L9.34766 30.918L9.50391 31.0547L9.69922 31.25L9.79688 31.3672L9.93359 31.4844L10.0703 31.6406H10.1094V31.6797L10.2656 31.8164L10.3828 31.9141L10.4805 31.8164L10.6172 31.6992L10.6758 31.6211L10.6562 31.543H10.6172L10.5781 31.4648L9.44531 30.332H9.38672Z" fill="black"/>
<path d="M9.85547 36.4844H10.1094L10.3633 36.543L10.6172 36.6992L10.8125 36.9141L10.9102 37.1094L10.9688 37.3047V37.6172L10.8906 37.8516L10.7734 38.0469L10.6172 38.2031L10.4414 38.3203L10.2461 38.3984L10.168 38.418H9.85547L9.60156 38.3398L9.40625 38.2227L9.23047 38.0469L9.09375 37.8125L9.03516 37.6172V37.3242L9.09375 37.0898L9.23047 36.8555L9.40625 36.6797L9.60156 36.5625L9.85547 36.4844ZM9.91406 37.1875L9.79688 37.2656L9.73828 37.3633V37.5L9.81641 37.6367L9.89453 37.6953L9.95312 37.7148H10.0898L10.2461 37.5781L10.2656 37.4219L10.207 37.2852L10.1484 37.2266L10.0117 37.1875H9.91406Z" fill="black"/>
<path d="M11.4375 34.7656H11.6914L11.9648 34.8242L12.2383 35L12.375 35.1562L12.4922 35.3516L12.5703 35.625V35.8398L12.5117 36.0547L12.375 36.3086L12.2969 36.4062L12.043 36.6016L11.8477 36.6797L11.7695 36.6992H11.4766L11.2227 36.6406L10.9492 36.4648L10.8125 36.3086L10.7148 36.1523L10.6172 35.8398L10.6367 35.5664L10.6953 35.3711L10.8125 35.1562L10.9297 35.0195L11.1445 34.8633L11.4375 34.7656ZM11.4961 35.4688L11.3594 35.5859L11.3203 35.6836L11.3398 35.8203L11.3984 35.918L11.5547 35.9961H11.6719L11.7891 35.918L11.8477 35.8398L11.8672 35.7422L11.8086 35.5859L11.7109 35.4883L11.6523 35.4688H11.4961Z" fill="black"/>
<path d="M5.75391 34.3555L5.85156 34.4141L6.24219 34.8047L6.22266 34.9023L5.26562 35.8594L5.24609 35.8984L5.14844 35.8594L4.71875 35.4297V35.3711L4.875 35.2344L5.75391 34.3555Z" fill="black"/>
<path d="M6.37891 35L6.47656 35.0391V35.0781H6.51562L6.82812 35.3906L6.88672 35.4688L6.84766 35.5469L5.89062 36.5039L5.87109 36.543L5.79297 36.5039L5.36328 36.0742L5.34375 36.0156L5.5 35.8789L6.37891 35Z" fill="black"/>
<path d="M5.10938 33.7305L5.1875 33.75L5.20703 33.8086L5.26562 33.8281L5.59766 34.1602L5.61719 34.2188L5.48047 34.375L4.60156 35.2539L4.50391 35.2148L4.09375 34.8047L4.11328 34.7266L5.10938 33.7305Z" fill="black"/>
<path d="M4.46484 33.1055L4.5625 33.125L4.73828 33.3203L4.93359 33.4961L4.97266 33.5352L4.95312 33.6328L3.95703 34.6289L3.87891 34.5898L3.44922 34.1602L3.48828 34.082L4.46484 33.1055Z" fill="black"/>
</g>
<defs>
<clipPath id="clip0_236_289">
<rect width="40" height="40" fill="white" transform="translate(0.5)"/>
</clipPath>
</defs>
</svg>
