<svg width="41" height="40" viewBox="0 0 41 40" fill="none" xmlns="http://www.w3.org/2000/svg">
<g clip-path="url(#clip0_236_302)">
<path d="M5.71484 0H6.26172L6.24219 0.0390625L6.35938 0.0976562L6.51562 0.214844L6.63281 0.351562L6.71094 0.507812L6.75 0.683594L6.76953 1.67969L7.90234 2.08984L9.66016 2.73438L10.0117 2.89062L10.2852 3.06641L10.4805 3.22266L10.6953 3.4375L10.8711 3.67188L11.0469 3.98438L11.1641 4.29688L11.2227 4.55078L11.2617 4.80469V5.07812L11.2227 5.39062L11.125 5.76172L10.9688 6.11328L10.8125 6.34766L10.5781 6.64062L10.4414 6.75781H10.4023V6.79688L10.207 6.93359L9.89453 7.10938L9.5625 7.22656L9.21094 7.30469L9.09375 7.32422H8.76172L8.46875 7.28516L8.03906 7.16797L7.27734 6.89453L6.78906 6.71875L6.76953 6.77734V12.8906L6.75 17.6367H12.668L13.1172 17.6758L13.4297 17.7539L13.7812 17.9102L14.0938 18.1055L14.2891 18.2812L14.4062 18.3789L14.6211 18.6523L14.7969 18.9453L14.9141 19.2188V19.2773L15.0508 19.2188L15.6758 18.8477L16.2617 18.5547L16.7695 18.3398L17.2969 18.1445L17.8438 17.9883L18.0781 17.9297H18.1367V14.5312L18.0781 14.5508H17.4727L17.2969 14.9414L16.9648 15.6445L16.7891 16.0156L16.5742 16.3672L16.418 16.5625H16.3789L16.3398 16.6406L16.1641 16.7969L15.8906 16.9922L15.5195 17.168L15.1875 17.2656L15.0117 17.3047L14.8164 17.3242H14.4844L14.0547 17.2461L13.5469 17.0508L12.8438 16.7188L12.082 16.3672L11.3789 16.0352L10.832 15.7812L10.4805 15.5664L10.2266 15.3516L10.0312 15.1562L9.81641 14.8438L9.66016 14.5312L9.5625 14.2188L9.50391 13.9648L9.48438 13.7305V13.4961L9.54297 13.125L9.69922 12.6562L10.0117 11.9922L10.2656 11.4453L11.6328 8.51562L11.7891 8.22266L11.9648 7.94922L12.0234 7.87109H12.0625L12.1016 7.79297L12.2969 7.59766L12.6289 7.36328L13.0391 7.16797L13.4688 7.07031L13.6445 7.05078H14.0352L14.3867 7.10938L14.7383 7.22656L15.1289 7.40234L15.7539 7.69531L16.2617 7.92969L16.9258 8.24219L17.4336 8.47656L17.7461 8.63281L18.0781 8.84766L18.2734 9.02344L18.3125 9.04297V9.08203H18.3516V9.12109H18.3906L18.5859 9.375L18.7617 9.66797L18.8984 10L18.9766 10.3125L18.9961 10.4297V10.9961L18.9375 11.3086L18.8008 11.6992L18.625 12.0898L18.332 12.7148L18.2344 12.9297L22.7656 12.9492L22.4727 12.3047L22.1992 11.7188L22.043 11.25L21.9844 10.8789V10.625L22.0234 10.293L22.1406 9.88281L22.3164 9.51172L22.5898 9.14062L22.7461 8.98438L22.9609 8.80859L23.3516 8.57422L23.8398 8.33984L24.3867 8.08594L24.8164 7.89062L25.1094 7.75391L25.6562 7.5L25.9297 7.36328L26.3008 7.20703L26.6914 7.08984L26.9648 7.05078H27.3555L27.6484 7.08984L28 7.1875L28.332 7.34375L28.5859 7.51953L28.8008 7.69531L29.0156 7.92969L29.1523 8.125L29.3281 8.4375L29.6992 9.21875L29.9141 9.6875L30.2461 10.3906L30.4609 10.8594L30.793 11.5625L31.0273 12.0703L31.2812 12.6172L31.418 12.9883L31.4961 13.3594V13.9648L31.3984 14.375L31.3008 14.6094L31.125 14.9414L30.9297 15.1953L30.832 15.3125L30.6758 15.4492L30.4609 15.6055L30.0508 15.8398L29.25 16.2109L28.5469 16.543L28.0391 16.7773L27.4141 17.0703L26.9844 17.2266L26.5156 17.3242H26.125L25.8516 17.2852L25.4609 17.168L25.0508 16.9531L24.7969 16.7578L24.6406 16.6211L24.5039 16.4648L24.3086 16.1914L24.0352 15.6641L23.7617 15.0781L23.5469 14.6094L23.5273 14.5312H22.8633V17.9102L23.6836 18.1445L24.1523 18.3203L24.4062 18.418L24.9727 18.6719L25.4219 18.9062L25.7539 19.1016L26.125 19.3359L26.457 19.5703L26.8672 19.8828L27.4141 20.3516L27.8047 20.7422L27.8633 20.7812L28.4297 20.7617H34.2305L34.2109 6.71875L33.1758 7.08984L32.8242 7.20703L32.4141 7.30469L32.2188 7.32422H31.9062L31.4766 7.24609L31.1055 7.10938L30.793 6.93359L30.6172 6.79688L30.4219 6.62109L30.2852 6.48438L30.0703 6.17188L29.9141 5.85938L29.8359 5.64453L29.7578 5.3125L29.7383 5.13672V4.78516L29.8164 4.35547L29.9727 3.94531L30.207 3.55469L30.4023 3.33984L30.4219 3.30078H30.4609V3.26172L30.793 3.00781L30.9883 2.89062L31.3203 2.73438L31.7891 2.55859L32.2383 2.40234L32.9805 2.12891L33.8984 1.79688L34.1719 1.69922H34.2305V0.78125L34.2891 0.488281L34.4453 0.234375L34.6016 0.117188L34.7773 0H35.3242V0.0390625L35.5391 0.175781L35.6953 0.351562L35.793 0.566406L35.832 0.839844V1.03516L35.8125 1.09375L36.2031 0.957031L37.1211 0.625L37.5703 0.507812L37.668 0.488281H38.2148L38.5469 0.546875L38.9375 0.683594L39.3086 0.898438L39.5234 1.07422L39.6406 1.17188L39.8164 1.38672L39.9727 1.60156L40.1289 1.91406L40.207 2.10938L40.3047 2.51953L40.3242 2.79297V2.98828L40.2656 3.35938L40.1289 3.76953L39.9531 4.10156L39.7969 4.31641L39.5625 4.57031L39.3672 4.72656L39.0938 4.90234L38.7031 5.07812L37.5703 5.48828L36.457 5.89844L35.8516 6.11328L35.832 9.41406L35.8125 20.7617H38.0391L38.5469 20.8008L38.8789 20.8789L39.1719 20.9961L39.4453 21.1523L39.6992 21.3477L39.8359 21.4648L40.0117 21.6797L40.1484 21.875L40.3242 22.207L40.4805 22.6562H40.5V28.2812H40.4414L40.4219 28.4375L40.2852 28.8086L40.1289 29.1016L39.9141 29.375L39.6797 29.6094L39.4062 29.8047L39.0938 29.9609L38.8398 30.0586L38.4688 30.1367L38.2344 30.1562H33.8008V37.1484L34.1719 37.3438L36.3203 38.418L36.5156 38.5352L36.7109 38.6914L36.8281 38.8672L36.8867 39.0039L36.9062 39.1016V39.3555L36.8086 39.6094L36.6719 39.7852L36.4961 39.9219L36.3203 40H35.9297L35.3047 39.707L34.9727 39.5312L34.5234 39.3164L34.1914 39.1406L33.7812 38.9453L33.4102 38.75L33.0977 38.5938L33 38.5547L32.5117 38.7891L30.2461 39.9219L30.0312 40H29.6016V39.9609L29.3672 39.8242L29.1914 39.6094L29.0352 39.3164L28.7227 38.6133L28.3516 37.8125L28.0391 37.1094L27.7461 36.4844L27.4922 35.918L27.2773 35.4492L27.2578 35.4102L27.0039 35.625L26.7305 35.8398L26.4766 36.0352L25.7734 36.5039L25.207 36.8164L24.8945 36.9727L24.2891 37.2461L23.8008 37.4219L23.1758 37.6172L22.4141 37.793L21.7695 37.8906L21.2031 37.9492L20.832 37.9688H20.168L19.4844 37.9297L18.6641 37.8125L18.0586 37.6758L17.6875 37.5781L16.8477 37.3047L16.1836 37.0117L15.8516 36.8555L15.4023 36.6016L15.1289 36.4453L14.8945 36.2891L14.4648 35.9961L14.1328 35.7227L13.8594 35.5078L13.7422 35.4102L13.6055 35.7031L13.2539 36.4648L13.0781 36.8555L12.7656 37.5391L12.3945 38.3594L12.082 39.043L11.8477 39.5508L11.6523 39.8047L11.4375 39.9414L11.3398 39.9609V40H10.9688L10.5977 39.8438L8.01953 38.5547L7.78516 38.6523L5.24609 39.9219L5.03125 40H4.60156V39.9609L4.36719 39.8242L4.19141 39.6094L4.11328 39.4336L4.09375 39.3555V39.1016L4.15234 38.9062L4.28906 38.6719L4.5625 38.4766L7.17969 37.168L7.19922 31.7188H2.74609L2.375 31.6797L2.02344 31.582L1.65234 31.4062L1.45703 31.2695L1.24219 31.0938L1.06641 30.918L0.851562 30.625L0.65625 30.2539L0.539062 29.8633V29.8047L0.5 29.7852V19.5898H0.539062L0.558594 19.4336L0.65625 19.1211L0.8125 18.8086L0.949219 18.5938L1.20312 18.3008L1.4375 18.1055L1.71094 17.9297L2.00391 17.793L2.33594 17.6953L2.60938 17.6562L2.88281 17.6367H5.16797V6.11328L4.97266 6.05469L3.83984 5.64453L2.29688 5.07812L1.86719 4.88281L1.63281 4.72656L1.41797 4.55078L1.28125 4.41406L1.125 4.21875L0.96875 3.96484L0.851562 3.73047L0.734375 3.37891L0.675781 3.00781V2.79297L0.695312 2.5L0.8125 2.03125L1.00781 1.62109L1.24219 1.30859L1.37891 1.15234L1.53516 1.01562L1.75 0.859375L2.0625 0.683594L2.375 0.566406L2.66797 0.507812L2.78516 0.488281H3.27344L3.66406 0.566406L4.30859 0.78125L4.89453 0.996094L5.14844 1.09375L5.1875 0.664062L5.24609 0.449219L5.38281 0.253906L5.53906 0.117188L5.71484 0ZM2.92188 2.07031L2.66797 2.14844L2.47266 2.30469L2.31641 2.53906L2.27734 2.69531V2.98828L2.35547 3.20312L2.49219 3.37891L2.64844 3.49609L2.88281 3.61328L4.13281 4.0625L5.24609 4.47266L6.49609 4.92188L7.60938 5.33203L8.21484 5.54688L8.58594 5.68359L8.91797 5.74219L9.13281 5.70312L9.26953 5.64453L9.42578 5.52734L9.5625 5.37109L9.64062 5.21484L9.66016 5.07812V4.82422L9.58203 4.60938L9.42578 4.39453L9.21094 4.25781L8.74219 4.08203L7.60938 3.67188L6.49609 3.26172L5.30469 2.83203L3.37109 2.12891L3.09766 2.07031H2.92188ZM37.9414 2.07031L37.6875 2.10938L37.082 2.32422L36.6719 2.48047L36.2812 2.61719L35.168 3.02734L34.3086 3.33984L33.918 3.47656L31.8281 4.23828L31.6133 4.375L31.4766 4.51172L31.3594 4.74609L31.3398 4.82422V5.11719L31.418 5.33203L31.5547 5.52734L31.75 5.66406L31.9453 5.72266H32.2383L32.4531 5.66406L33.1562 5.41016L34.2695 5L34.875 4.78516L35.9883 4.375L37.2383 3.92578L38.1953 3.57422L38.4102 3.45703L38.5664 3.32031L38.6836 3.125L38.7227 2.96875V2.71484L38.6641 2.51953L38.5469 2.32422L38.3906 2.1875L38.2344 2.10938L38.0586 2.07031H37.9414ZM13.7812 8.63281L13.5664 8.67188L13.3516 8.78906L13.1758 8.98438L13 9.31641L12.8242 9.70703V9.78516L13.1367 9.94141L13.7812 10.2344L14.0547 10.3711L14.6016 10.625L16.3203 11.4258L16.9844 11.7383H17.043L17.3555 11.0742L17.4141 10.8398V10.6055L17.3555 10.3906L17.2188 10.1953L17.0234 10.0391L16.5938 9.82422L15.9492 9.53125L15.4219 9.27734L14.9531 9.0625L14.2891 8.75L14.0156 8.65234L13.918 8.63281H13.7812ZM27.1211 8.63281L26.8086 8.71094L26.1836 9.00391L25.6758 9.23828L25.0117 9.55078L24.4844 9.78516L23.9766 10.0391L23.7812 10.1953L23.6445 10.3906L23.5859 10.6055V10.8398L23.6641 11.0938L23.8203 11.4453L23.957 11.7383L24.0742 11.6992L24.5039 11.5039L24.7969 11.3672L25.3633 11.0938L26.0078 10.8008L26.7891 10.4297L27.2969 10.1953L28.1758 9.78516L28.1562 9.66797L27.8828 9.08203L27.7461 8.88672L27.5898 8.75L27.4336 8.67188L27.1211 8.63281ZM12.1211 11.2109L11.9258 11.6406L11.7695 11.9531L11.5547 12.4219L11.2227 13.125L11.1055 13.4375L11.0859 13.5352V13.7695L11.125 13.9453L11.2617 14.1602L11.457 14.3164L11.75 14.4727L12.3945 14.7656L13.1367 15.1172L13.6445 15.3516L14.2695 15.6445L14.4648 15.7031L14.543 15.7227H14.8164L15.0312 15.6445L15.1484 15.5664L15.2461 15.4883L15.4219 15.2148L15.6953 14.6289L15.9883 14.0039L16.2422 13.457L16.3398 13.2422L16.3203 13.1445L16.0078 13.0078L15.2656 12.6562L14.7188 12.4023L13.5469 11.8555L12.8828 11.543L12.2383 11.25L12.1211 11.2109ZM28.8594 11.2109L28.293 11.4648L27.6289 11.7773L26.457 12.3242L25.2852 12.8711L24.8945 13.0469L24.6602 13.1641L24.6797 13.2812L25.0508 14.082L25.3242 14.668L25.5781 15.2148L25.7539 15.4883L25.8906 15.6055L26.0859 15.7031L26.2031 15.7227H26.457L26.7109 15.6445L27.375 15.332L28.5469 14.7852L29.3086 14.4336L29.5625 14.2969L29.7383 14.1602L29.875 13.9453L29.9141 13.75V13.5352L29.8359 13.2617L29.5039 12.5586L29.1328 11.7578L28.8984 11.25L28.8594 11.2109ZM19.7383 14.5312L19.7188 15.0195V17.6562L19.7383 17.6758H21.2617V14.5312H19.7383ZM2.88281 19.2188L2.60938 19.2578L2.41406 19.3555L2.25781 19.4922L2.14062 19.6875L2.08203 19.9023L2.0625 20.293V20.7617H13.1758L13.4102 20.5469L13.4492 20.4883V19.9219L13.3906 19.6875L13.2539 19.4727L13.1172 19.3555L12.9023 19.2578L12.668 19.2188H2.88281ZM19.9141 19.2383L19.3281 19.2969L18.7617 19.3945L18.1953 19.5312L17.6484 19.707L17.2383 19.8633L16.7891 20.0586L16.2617 20.332L15.8516 20.5859L15.6172 20.7422L15.3047 20.9766L15.0312 21.1914L14.6406 21.543L14.5625 21.6016V21.6406L14.4844 21.6797L14.3281 21.8359L14.1914 21.9922L13.9375 22.2656L13.4297 22.9297L13.2734 23.1836L13.0195 23.5938L12.6875 24.2383L12.4531 24.8047L12.2188 25.5273L12.0625 26.1914L11.9648 26.8555L11.9258 27.3828L11.9062 27.8125L11.9453 28.5547L12.0039 29.0625L12.1016 29.6094L12.2578 30.2344L12.4141 30.7031L12.6289 31.25L12.9609 31.9336L13.1367 32.2266L13.3906 32.6367L13.7031 33.0469L13.8984 33.3008L14.1133 33.5352L14.1328 33.5742H14.1719L14.2109 33.6523L14.5039 33.9648L14.6602 34.1016L14.9141 34.3359L15.1289 34.5117L15.5391 34.8242L15.832 35.0195L16.3594 35.332L16.6719 35.4883L17.1602 35.7227L17.668 35.918L18.0977 36.0547L18.8008 36.2305L19.6016 36.3477L20.207 36.3867H20.7734L21.418 36.3477L22.2773 36.2109L23.0195 36.0156L23.625 35.8008L23.918 35.6836L24.6406 35.332L25.1875 35L25.4414 34.8242L25.8516 34.5117L26.0469 34.3555L26.3008 34.1211L26.4961 33.9453L26.5938 33.8672L26.7305 33.7109L26.75 33.6523H26.7891L26.9258 33.4961L27.1406 33.2617L27.4336 32.8711L27.6484 32.5781L27.8828 32.1875L28.0977 31.8164L28.3906 31.2109L28.6055 30.6445L28.7617 30.1562L28.918 29.5117L29.0352 28.75L29.0742 28.1055V27.4414L29.0352 26.8945L28.9375 26.2109L28.8008 25.6055L28.5859 24.9023L28.332 24.2773L28.1758 23.9648L28.0195 23.6719L27.6875 23.125L27.5117 22.8516L27.2969 22.5781L27.1211 22.3633L26.9062 22.0898L26.7891 21.9531L26.6328 21.8164L26.3008 21.4844L26.1445 21.3477L25.9492 21.1719L25.5977 20.918L25.2266 20.6445L25.0117 20.5078L24.4453 20.1953L24.0352 19.9805L23.2148 19.668L22.8633 19.5508L22.3164 19.4141L21.9062 19.3359L21.3008 19.2578L20.9883 19.2383H19.9141ZM2.08203 22.3438L2.0625 22.9102V27.0117L4.73828 27.0312L5.08984 27.0703L5.26562 27.1484L5.44141 27.2852L5.55859 27.4609L5.61719 27.6172L5.63672 27.6953V27.9297L5.57812 28.125L5.44141 28.3398L5.26562 28.4766L5.12891 28.5352L4.89453 28.5742L2.08203 28.5938L2.0625 28.6523V29.2773L2.10156 29.5703L2.17969 29.7656L2.31641 29.9414L2.53125 30.0781L2.78516 30.1367H10.5977L10.5781 29.9609L10.4219 29.043L10.3828 28.5938L10.3438 27.8711L10.3633 27.168L10.4414 26.4062L10.5781 25.6445L10.7344 25.0195L10.9688 24.2969L11.2422 23.6328L11.3984 23.3008L11.5938 22.9297L11.7695 22.6172L11.9062 22.3828V22.3438H2.08203ZM29.0742 22.3438L29.1719 22.5391L29.3281 22.793L29.5625 23.2227L29.875 23.8867H38.918V23.0664L38.8594 22.8125L38.7422 22.6172L38.5859 22.4805L38.3711 22.3828L38.1367 22.3438H29.0742ZM30.4023 25.4688L30.4219 25.6836L30.5586 26.4844L30.5977 26.8359L30.6367 27.5V28.5742H38.2344L38.4688 28.5156L38.6445 28.3984L38.7812 28.2617L38.8789 28.0664L38.918 27.8906V25.4688H30.4023ZM30.3828 30.1562L30.1289 31.0156L29.9922 31.4062L29.6602 32.1875L29.4062 32.6758L29.1328 33.1445L28.957 33.418L28.7227 33.75L28.4688 34.1016L28.4492 34.1992L28.6836 34.707L28.9766 35.3516L29.1914 35.8203L29.5625 36.6406L29.8945 37.3633L30.207 38.0664L30.2461 38.125L30.3438 38.1055L32.1797 37.1875L32.1992 37.168V30.1562H30.3828ZM8.80078 31.7188L8.78125 32.2852V37.1484L8.9375 37.2461L10.6953 38.125H10.7539L11.0664 37.4609L11.3789 36.7578L11.6719 36.1328L12.1992 34.9609L12.5117 34.2773L12.5508 34.1406L12.2969 33.7891L12.1211 33.5547L11.8477 33.125L11.6523 32.793L11.3594 32.2461L11.1445 31.7773L11.1055 31.7188H8.80078Z" fill="black"/>
<path d="M20.3828 20.7617L21.0078 20.7812L21.3984 20.8203L21.9844 20.918L22.5703 21.0742L23.0781 21.25L23.4688 21.4258L23.8398 21.6016L24.3867 21.9336L24.7383 22.1875L25.0117 22.4023L25.2656 22.6367L25.5 22.8516L25.6562 23.0078L25.793 23.1641L26.0078 23.418L26.1836 23.6523L26.418 23.9844L26.6133 24.3164L26.8086 24.6875L27.0039 25.0977L27.2188 25.6836L27.3945 26.3672L27.4922 26.9531L27.5312 27.4219V28.2031L27.4922 28.6719L27.4141 29.1602L27.2969 29.668L27.1797 30.0391L27.0234 30.4688L26.8477 30.8594L26.6523 31.25L26.4961 31.5039L26.3008 31.8164L26.0273 32.168L25.8711 32.3633L25.832 32.4219H25.793L25.7539 32.5L25.4414 32.832L25.1875 33.0664L24.9141 33.3008L24.543 33.5742L24.25 33.7695L23.8203 34.0234L23.2539 34.2969L22.7266 34.4922L22.1797 34.6484L21.7109 34.7461L21.1445 34.8242L20.832 34.8438H20.1484L19.6406 34.8047L19.0547 34.707L18.4492 34.5508L17.8438 34.3359L17.2969 34.082L17.0039 33.9258L16.5938 33.6719L16.2227 33.3984L16.0273 33.2422L15.832 33.0664L15.6758 32.9297L15.4805 32.7539L15.1289 32.3633L14.8945 32.0703L14.6406 31.7188L14.3867 31.3086L14.2305 31.0352L13.9961 30.5273L13.7812 29.9414L13.625 29.3555L13.5273 28.8281L13.4883 28.5547L13.4492 27.9297L13.4688 27.3242L13.5078 26.9336L13.6055 26.3477L13.7617 25.7422L13.957 25.1953L14.0938 24.8828L14.2891 24.4727L14.6211 23.9258L14.8945 23.5547L15.0898 23.3008L15.2852 23.0859L15.4219 22.9297L15.7344 22.6172H15.7734V22.5781L15.9297 22.4414L16.2031 22.2266L16.5742 21.9531L17.1211 21.6211L17.4336 21.4648L17.7656 21.3086L18.3516 21.0938L18.8398 20.957L19.3477 20.8594L19.7383 20.8008L20.3828 20.7617ZM20.4609 22.3438L19.8555 22.3828L19.3672 22.4609L18.8398 22.5977L18.3711 22.7734L17.8828 23.0078L17.4727 23.2617L17.1797 23.4766L16.9648 23.6523L16.7305 23.8672L16.6719 23.9062V23.9453H16.6328L16.4961 24.1016L16.2812 24.3359L16.1055 24.5703L15.9688 24.7656L15.7734 25.0781L15.5391 25.5273L15.3828 25.8984L15.2656 26.25L15.1484 26.7188L15.0898 27.0508L15.0312 27.7539L15.0508 28.2031L15.1094 28.7109L15.207 29.1797L15.3438 29.6289L15.5391 30.0977L15.6953 30.4102L15.8516 30.6836L16.0078 30.918L16.2422 31.2305L16.4766 31.5039L16.8477 31.875L17.0039 32.0117L17.3945 32.3047L17.7656 32.5391L18.2539 32.793L18.6445 32.9492L19.0156 33.0664L19.5234 33.1836L19.9531 33.2422L20.207 33.2617H20.793L21.2227 33.2227L21.75 33.125L22.2383 32.9883L22.7266 32.793L23.0586 32.6367L23.5469 32.3438L23.8789 32.0898L24.0742 31.9336L24.3867 31.6406L24.5234 31.5039L24.6602 31.3477L24.8359 31.1328L25.0703 30.8008L25.2461 30.5078L25.4805 30.0586L25.5977 29.7656L25.7539 29.2969L25.8711 28.8086L25.9297 28.3984L25.9492 28.1055V27.5L25.9102 27.0898L25.832 26.6406L25.7148 26.1914L25.5391 25.7031L25.3047 25.2148L25.1484 24.9414L24.9531 24.6484L24.7773 24.4141L24.543 24.1406L24.0938 23.6914L23.8203 23.4766L23.5273 23.2617L23.1367 23.0273L22.8438 22.8711L22.4727 22.7148L21.9453 22.5391L21.5156 22.4414L21.125 22.3828L20.5 22.3438H20.4609Z" fill="black"/>
<path d="M7.86328 27.0312H8.13672L8.37109 27.1094L8.56641 27.2656L8.68359 27.4219L8.76172 27.5977L8.78125 27.6953V27.9492L8.70312 28.1641L8.54688 28.3789L8.35156 28.5156L8.19531 28.5742L8.07812 28.5938H7.90234L7.6875 28.5352L7.49219 28.418L7.35547 28.2617L7.23828 28.0273L7.21875 27.9492V27.6953L7.29688 27.4414L7.43359 27.2656L7.57031 27.1484L7.76562 27.0508L7.86328 27.0312Z" fill="black"/>
</g>
<defs>
<clipPath id="clip0_236_302">
<rect width="40" height="40" fill="white" transform="translate(0.5)"/>
</clipPath>
</defs>
</svg>
