<svg width="18" height="21" viewBox="0 0 18 21" fill="none" xmlns="http://www.w3.org/2000/svg">
<path d="M16 8.5H17C17.2652 8.5 17.5196 8.60536 17.7071 8.79289C17.8946 8.98043 18 9.23478 18 9.5V19.5C18 19.7652 17.8946 20.0196 17.7071 20.2071C17.5196 20.3946 17.2652 20.5 17 20.5H1C0.734784 20.5 0.48043 20.3946 0.292893 20.2071C0.105357 20.0196 0 19.7652 0 19.5V9.5C0 9.23478 0.105357 8.98043 0.292893 8.79289C0.48043 8.60536 0.734784 8.5 1 8.5H2V7.5C2 6.58075 2.18106 5.6705 2.53284 4.82122C2.88463 3.97194 3.40024 3.20026 4.05025 2.55025C4.70026 1.90024 5.47194 1.38463 6.32122 1.03284C7.17049 0.68106 8.08075 0.5 9 0.5C9.91925 0.5 10.8295 0.68106 11.6788 1.03284C12.5281 1.38463 13.2997 1.90024 13.9497 2.55025C14.5998 3.20026 15.1154 3.97194 15.4672 4.82122C15.8189 5.6705 16 6.58075 16 7.5V8.5ZM2 10.5V18.5H16V10.5H2ZM8 12.5H10V16.5H8V12.5ZM14 8.5V7.5C14 6.17392 13.4732 4.90215 12.5355 3.96447C11.5979 3.02678 10.3261 2.5 9 2.5C7.67392 2.5 6.40215 3.02678 5.46447 3.96447C4.52678 4.90215 4 6.17392 4 7.5V8.5H14Z" fill="white"/>
</svg>
