<svg width="40" height="41" viewBox="0 0 40 41" fill="none" xmlns="http://www.w3.org/2000/svg">
<path d="M37.5195 1.69531H37.8125L38.0664 1.77344L38.2812 1.91016L38.5352 2.14453L39.6875 3.29688L39.8438 3.49219L40 3.78516V4.37109L39.9609 4.39062L39.8438 4.625L39.6289 4.85938L39.3359 5.03516L39.1016 5.17188L38.8867 5.28906L38.4375 5.52344L38.0859 5.71875L37.7148 5.93359L37.5 6.10938L37.4023 6.20703H37.3633L37.3242 6.28516L37.1289 6.51953L36.875 6.85156L36.6016 7.20312L36.3477 7.53516L35.918 8.08203L35.7617 8.29688L35.4883 8.62891L35.293 8.78516L35.0781 8.88281L34.9023 8.92188H34.5703L34.3164 8.84375L34.1016 8.74609L33.9453 8.70703H33.6523L33.3789 8.78516L33.125 8.92188L32.8125 9.13672L32.5781 9.23438L32.3438 9.29297L32.207 9.42969L32.0703 9.58594L31.6797 9.97656L31.543 10.1328L31.1914 10.4844L31.1719 10.5234H31.1328V10.5625H31.0938L31.0547 10.6406L30.7031 10.9922L30.6836 11.0312H30.6445L30.6055 11.1094L30.1758 11.5391L30.0391 11.6953L29.6484 12.0859L29.6289 12.125H29.5898V12.1641H29.5508L29.5117 12.2422L29.1602 12.5938L29.1406 12.6328H29.1016V12.6719H29.0625L29.0234 12.75L28.6719 13.1016L28.6523 13.1406H28.6133L28.5742 13.2188L28.2227 13.5703L28.0859 13.7266L27.6172 14.1953L27.4805 14.3516L27.207 14.625L27.1875 14.6641H27.1484V14.7031H27.1094L27.0703 14.7812L26.7188 15.1328L26.6992 15.1719H26.6602L26.6211 15.25L26.1914 15.6797L26.0547 15.8359L25.6641 16.2266L25.6445 16.2656H25.6055L25.5664 16.3438L25.1758 16.7344L25.0391 16.8906L24.707 17.2227L24.5703 17.3789L24.2383 17.7109L24.1016 17.8672L23.7109 18.2578L23.5742 18.4141L23.2227 18.7656L23.2031 18.8047H23.1641V18.8438H23.125L23.0859 18.9219L22.7344 19.2734L22.7148 19.3125H22.6758L22.6367 19.3906L22.2852 19.7422L22.1484 19.8984L21.6797 20.3672L21.6602 20.4062H21.6211L21.582 20.4844L21.2305 20.8359L21.2109 20.875H21.1719L21.1328 20.9531L20.7812 21.3047L20.7617 21.3438H20.7227L20.6836 21.4219L20.2539 21.8516L20.1172 22.0078L19.6484 22.4766L19.5117 22.6328L19.2383 22.9062L19.2188 22.9453H19.1797L19.1406 23.0234L18.75 23.4141L18.6133 23.5703L18.2227 23.9609L18.0859 24.1172L18.0273 24.1758L18.0664 24.2734L18.2812 24.5859L18.4375 24.7812L18.5547 24.918L18.7109 25.0547L18.9453 25.2305L19.1406 25.3477L19.3945 25.4453L19.668 25.5039H20.0977L20.4492 25.4258L20.8398 25.2695L21.1523 25.1523L21.3477 25.1133H21.6992L22.0117 25.1914L22.2852 25.3281L22.4609 25.4648L22.6562 25.6602L22.793 25.875L22.9102 26.1289L22.9688 26.4023V26.7148L22.9297 26.9297L22.832 27.1641L22.7344 27.3398L22.5391 27.5938L22.4609 27.6719H22.4219V27.7109L22.2656 27.8477L21.9141 28.1211L21.5234 28.375L21.0352 28.6484L20.4492 28.9414L19.9023 29.1953L19.5898 29.332L18.9648 29.6445L18.6133 29.8398L18.3008 30.0547L18.0664 30.2695L17.9883 30.3672L17.8516 30.6992L17.7344 31.2266L17.5977 32.0664L17.4805 32.7891L17.3047 33.5703L17.0898 34.2539L16.9141 34.6836L16.6797 35.1719L16.4453 35.582L16.2305 35.8945L16.0742 36.1094L15.8594 36.3828L15.6445 36.6172L15.5078 36.7734L15.2148 37.0664L15 37.2422L14.7656 37.4375L14.375 37.7109L13.9062 37.9844L13.4766 38.1992L13.0273 38.375L12.6172 38.5117L12.1289 38.6289L11.7188 38.707L11.0742 38.7852L10.7617 38.8047H10.1758L9.45312 38.7461L8.80859 38.6484L8.20312 38.5117L7.65625 38.3555L7.14844 38.1797L6.67969 37.9844L6.09375 37.7109L5.58594 37.4375L5.07812 37.125L4.6875 36.8516L4.31641 36.5781L4.0625 36.3633L3.86719 36.207L3.63281 35.9922L3.47656 35.8555L3.24219 35.6406L2.96875 35.3672L2.83203 35.2109L2.61719 34.9766L2.44141 34.7617L2.22656 34.5078L1.95312 34.1367L1.71875 33.8047L1.48438 33.4336L1.28906 33.1016L1.17188 32.9062L1.01562 32.5938L0.820312 32.1836L0.605469 31.6562L0.371094 30.9727L0.195312 30.2891L0.078125 29.6445L0 29.1758V27.5156L0.0585938 27.2227L0.15625 26.6562L0.292969 26.1289L0.46875 25.6016L0.722656 25.0156L0.957031 24.5859L1.11328 24.3711L1.30859 24.2539L1.38672 24.2344H1.64062L1.83594 24.3125L1.99219 24.4492L2.08984 24.625L2.10938 24.7031V24.957L1.93359 25.3281L1.73828 25.6992L1.52344 26.2461L1.36719 26.793L1.26953 27.3008L1.21094 27.8477L1.19141 28.1406V28.5703L1.25 29.2734L1.36719 29.9766L1.52344 30.582L1.69922 31.1094L1.89453 31.5977L2.10938 32.0664L2.40234 32.6133L2.71484 33.1211L2.91016 33.3945L3.18359 33.7656L3.35938 33.9805L3.59375 34.2539L4.02344 34.7227L4.0625 34.7422V34.7812L4.14062 34.8203L4.41406 35.0938L4.57031 35.2305L4.82422 35.4453L5.15625 35.6992L5.44922 35.9141L5.85938 36.1875L6.28906 36.4414L6.81641 36.7148L7.1875 36.8906L7.79297 37.125L8.28125 37.2812L8.75 37.3984L9.27734 37.4961L9.90234 37.5742L10.1758 37.5938H10.7812L11.3672 37.5352L11.8359 37.457L12.3633 37.3203L12.8516 37.1445L13.418 36.8711L13.7695 36.6562L14.043 36.4609L14.2383 36.3047L14.4727 36.0898L14.6094 35.9727L14.7461 35.8164L14.9414 35.6016L15.0977 35.4062L15.332 35.0742L15.4883 34.8203L15.7227 34.3711L15.918 33.9219L16.0742 33.4531L16.2305 32.8281L16.3672 32.1055L16.543 30.9727L16.6602 30.4648L16.7969 30.0547L16.9922 29.6836L17.1484 29.4883L17.3242 29.293L17.5391 29.1172L17.832 28.9023L18.2227 28.668L18.6719 28.4336L19.3164 28.1211L19.9609 27.8281L20.6641 27.4766L21.0547 27.2422L21.4062 26.9883L21.6602 26.7539L21.7383 26.6562L21.7578 26.6172V26.5L21.6797 26.3828L21.6016 26.3242H21.4648L20.9375 26.5391L20.5273 26.6562L20.1953 26.7148L19.8047 26.7344L19.4141 26.6953L19.0234 26.5977L18.7305 26.4805L18.418 26.3242L18.1641 26.1484L17.8906 25.9336L17.5 25.543L17.2852 25.2695L17.168 25.1133H17.1094L16.9727 25.2695L16.7188 25.5234L16.6992 25.5625H16.6602L16.6211 25.6406L16.1523 26.1094L15.957 26.2266L15.7617 26.3047L15.6836 26.3242H15.3125L15.0781 26.2461L14.8828 26.1289L14.5898 25.8555L12.8516 24.1172V24.0781L12.7734 24.0391V24H12.7344L12.5586 23.7656L12.4805 23.6094L12.4219 23.3945V23.1406L12.4805 22.9062L12.5977 22.6719L12.832 22.418L12.9883 22.2617L13.1445 22.125L13.5547 21.7148L13.7109 21.5781L14.1016 21.1875L14.2578 21.0508L14.5703 20.7383H14.6094V20.6992H14.6484V20.6602L14.8047 20.5234L15.0977 20.2305L15.2539 20.0938L15.6641 19.6836L15.8203 19.5469L16.1523 19.2148L16.3086 19.0781L16.7383 18.6484L16.8945 18.5117L16.9531 18.4531L16.9141 18.3555L16.6406 17.9648L16.4258 17.5938L16.2305 17.1836L16.0547 16.6562L15.9766 16.2461L15.957 16.0508V15.6406L16.0156 15.2109L16.1328 14.7812L16.3086 14.3711L16.4648 14.0781L16.6602 13.7852L16.8945 13.4922L17.0312 13.3359L17.2656 13.082L17.5 12.8672H17.5391V12.8281H17.5781L17.6367 12.7109V12.5352L17.5586 12.418L17.5 12.3984H17.2656L16.8359 12.4766L16.3672 12.6328L16.0547 12.7891L15.7422 12.9648L15.4688 13.1602L15.1562 13.4141L14.9219 13.6289L14.668 13.8828L14.5312 14.0391L14.3359 14.2734L14.1406 14.5469L13.9453 14.8398L13.6719 15.3281L13.3984 15.875L13.1055 16.5781L12.8711 17.1641L12.6562 17.6914L12.4414 18.1797L12.2266 18.6289L11.9922 19.0391L11.8359 19.2734L11.6797 19.4883L11.5234 19.6836L11.3477 19.8789L11.0547 20.1719L10.8008 20.3672L10.5078 20.5625L10.1953 20.7383L9.92188 20.875L9.51172 21.0312L9.02344 21.168L8.08594 21.3828L7.22656 21.5977L6.48438 21.832L5.85938 22.0664L5.33203 22.3008L4.82422 22.5547L4.43359 22.7891L4.19922 22.9453L3.84766 23.1992L3.61328 23.3164L3.55469 23.3359H3.32031L3.125 23.2578L3.00781 23.1602L2.89062 22.9844L2.85156 22.8672V22.6133L2.92969 22.4375L3.06641 22.2812L3.28125 22.1055L3.75 21.793L4.14062 21.5586L4.6875 21.2656L5.01953 21.1094L5.48828 20.9141L6.17188 20.6602L6.93359 20.4258L7.67578 20.2305L8.63281 20.0156L9.0625 19.8984L9.375 19.7812L9.78516 19.5859L10.0195 19.4297L10.2734 19.2344L10.6055 18.9023L10.8008 18.6484L11.0156 18.3164L11.2109 17.9648L11.4648 17.3984L11.6992 16.832L12.0898 15.8555L12.3047 15.3672L12.5391 14.8789L12.8125 14.3711L13.0859 13.9414L13.3398 13.5898L13.5938 13.2773L13.7695 13.082L13.7891 13.043H13.8281L13.8672 12.9648L14.1016 12.7305L14.2578 12.5938L14.4531 12.418L14.7266 12.2031L15 12.0078L15.3516 11.793L15.8008 11.5586L16.0938 11.4414L16.4453 11.3242L16.8945 11.2266L17.207 11.1875H17.6367L17.8906 11.2461L18.2031 11.4023L18.3984 11.5586L18.5938 11.7734L18.7109 11.9688L18.8086 12.2227L18.8672 12.5156V12.75L18.8086 13.043L18.7109 13.2773L18.5352 13.5508L18.2812 13.8047L18.125 13.9414L17.8711 14.1953L17.6562 14.4688L17.4805 14.7422L17.3242 15.0547L17.207 15.4453L17.1875 15.5625V16.1289L17.2852 16.5391L17.4023 16.832L17.5586 17.1445L17.7539 17.457L17.832 17.5742L17.9102 17.5352L18.2617 17.1836L18.418 17.0469L18.7109 16.7539H18.75V16.7148L18.9062 16.5781L19.2383 16.2461L19.3945 16.1094L19.8047 15.6992L19.9609 15.5625L20.293 15.2305L20.4492 15.0938L20.8203 14.7227H20.8594V14.6836L21.0156 14.5469L21.2695 14.293L21.4258 14.1562L21.8359 13.7461L21.9922 13.6094L22.3242 13.2773L22.4805 13.1406L22.8516 12.7695H22.8906V12.7305L23.0469 12.5938L23.3203 12.3203L23.4766 12.1836L23.8672 11.793L24.0234 11.6562L24.4336 11.2461L24.5898 11.1094L24.8828 10.8164H24.9219V10.7773L25.0781 10.6406L25.3516 10.3672L25.5078 10.2305L25.8984 9.83984H25.9375L25.9766 9.76172L26.1328 9.625L26.4648 9.29297L26.6211 9.15625L26.9922 8.78516H27.0312V8.74609L27.1875 8.60938L27.4414 8.35547L27.5977 8.21875L28.0078 7.80859L28.1641 7.67188L28.4961 7.33984L28.6523 7.20312L29.0234 6.83203H29.0625V6.79297L29.2188 6.65625L29.4141 6.46094V6.26562L29.4727 6.03125L29.7266 5.48438L30 4.91797L30.2539 4.37109L30.4883 3.92188L30.6445 3.74609L30.8398 3.60938L31.1523 3.49219L32.6562 3.0625L32.9492 3.00391L33.1445 3.04297L33.3008 3.12109L33.4375 3.25781L33.5156 3.41406L33.5352 3.47266V3.76562L33.418 4L33.2812 4.11719L32.9688 4.23438L31.4648 4.66406L31.3086 4.97656L31.0938 5.44531L30.9375 5.75781L30.6836 6.28516L30.7031 6.38281L32.3047 7.98438L32.3828 7.96484L32.6758 7.78906L32.9102 7.67188L33.3203 7.53516L33.5547 7.49609H34.043L34.4336 7.57422L34.668 7.67188L34.7461 7.63281L34.9219 7.39844L35.4688 6.69531L35.6641 6.44141L35.8984 6.14844L36.0742 5.91406L36.2891 5.64062L36.4648 5.44531L36.6016 5.28906L36.8164 5.09375L37.0898 4.89844L37.3828 4.72266L37.9297 4.42969L38.2812 4.23438L38.6719 4.01953L38.5547 3.88281V3.84375L38.4961 3.82422L38.3594 3.66797L37.6367 2.94531L37.5586 2.92578L36.3867 3.25781L35.7617 3.43359H35.5664L35.3711 3.35547L35.2148 3.21875L35.0977 3.02344L35.0781 2.96484V2.71094L35.1562 2.51562L35.2734 2.37891L35.4297 2.28125L35.7227 2.18359L36.2891 2.02734L37.3047 1.73438L37.5195 1.69531ZM30.0977 7.47656L29.9414 7.61328L29.707 7.84766L29.668 7.86719V7.90625L29.5898 7.94531L29.1797 8.35547L29.1406 8.375V8.41406H29.1016V8.45312L29.0234 8.49219L28.9844 8.57031L29.1797 8.74609L30.1953 9.76172L30.2734 9.72266L30.4297 9.56641V9.52734H30.4688L30.6055 9.37109L31.0156 8.96094L31.1523 8.80469L31.2695 8.6875L31.25 8.60938L30.1172 7.47656H30.0977ZM28.0859 9.39062L27.5977 9.87891L27.5586 9.89844V9.9375L27.4805 9.97656L27.168 10.2891L27.1094 10.3281L27.1289 10.4062L28.3594 11.6367L28.418 11.6562L28.5547 11.5195V11.4805H28.5938L28.7305 11.3242L29.082 10.9727L29.2188 10.8164L29.375 10.6602L29.3359 10.5625L28.1641 9.39062H28.0859ZM26.1914 11.207L25.5664 11.832L25.5273 11.8516V11.8906L25.4492 11.9297L25.2734 12.1055L25.2148 12.1445L25.2539 12.2227L25.3516 12.3398H25.3906V12.3789L25.5273 12.4961L25.5859 12.5742H25.625L25.6641 12.6523H25.7031L25.7422 12.7305H25.7812L25.8203 12.8086H25.8594L25.8984 12.8867H25.9375L25.9766 12.9648H26.0156L26.0547 13.043H26.0938L26.1328 13.1211H26.1719L26.2109 13.1992H26.25L26.2695 13.2578L26.3672 13.3555H26.4062L26.4453 13.4336L26.6016 13.5508L26.8164 13.3164L27.0508 13.082V13.043L27.1094 13.0234L27.2461 12.8672L27.4219 12.6914V12.6523L27.5 12.6133L27.5586 12.5547L27.5391 12.4766L26.2695 11.207H26.1914ZM24.3359 13.0039L24.2383 13.082L24.1016 13.2383L23.9844 13.3359V13.375L23.9062 13.4141L23.4961 13.8242L23.3398 13.9609L23.3594 14.0391L24.7461 15.4258L24.8242 15.3867L25.0195 15.1914V15.1523L25.0977 15.1133V15.0742L25.1562 15.0547L25.293 14.8984L25.4688 14.7227L25.6055 14.5664L25.7422 14.4297L25.7031 14.3516L24.3555 13.0039H24.3359ZM22.4609 14.8203L22.3047 14.957L21.9531 15.3086L21.875 15.3672V15.4062L21.7969 15.4453L21.4453 15.7969L21.4844 15.875L21.6016 15.9922H21.6406L21.6797 16.0703H21.7188L21.7578 16.1484L22.0703 16.4609H22.1094L22.1484 16.5391H22.1875L22.2266 16.6172L22.3828 16.7734H22.4219L22.4609 16.8516L22.5391 16.9297H22.5781L22.6172 17.0078L22.6953 17.0859H22.7344V17.125H22.7734V17.1641L22.8711 17.2422L22.9102 17.3008L23.0078 17.2812L23.1445 17.1445L23.2812 16.9883L23.5156 16.7539V16.7148H23.5547L23.6914 16.5586L23.9062 16.3438L23.9258 16.2656L22.4805 14.8203H22.4609ZM20.5664 16.6367L20.4102 16.7734L19.9219 17.2617L19.8438 17.3203V17.3594L19.7656 17.3984L19.5898 17.5742L19.5508 17.5938V17.6523L19.707 17.7891L21.1133 19.1953L21.1914 19.1758L21.3281 19.0195L21.4844 18.8633V18.8242L21.5625 18.7852V18.7461H21.6016L21.7383 18.5898L21.9922 18.3359V18.2969L22.0703 18.2578V18.2188H22.1094L22.0898 18.1406L20.5859 16.6367H20.5664ZM18.6719 18.4531L18.3789 18.7461L18.2227 18.8828L17.8516 19.2539L17.8125 19.2734V19.3125L17.7344 19.3516L17.6562 19.4492L19.2969 21.0898L19.375 21.0508L19.5312 20.8945V20.8555H19.5703L19.707 20.6992L19.9609 20.4453L20.0977 20.2891L20.293 20.0938L20.2734 20.0156L20.1562 19.918L20.1172 19.8594H20.0781L20.0391 19.7812L18.7109 18.4531H18.6719ZM16.7969 20.2695L16.5625 20.4844L16.2695 20.7773L16.1133 20.9141L15.8984 21.1289L15.7812 21.2266L15.8008 21.3047L15.9766 21.4805H16.0156L16.0547 21.5586H16.0938L16.1328 21.6367H16.1719L16.2109 21.7148L17.3047 22.8086H17.3438L17.3828 22.8867H17.4219L17.4609 22.9648L17.5586 22.9453L17.5781 22.8867L17.6562 22.8477L17.793 22.6914L18.0859 22.3984L18.2227 22.2422L18.457 22.0078L18.4766 21.9297L16.8164 20.2695H16.7969ZM14.8828 22.1055L14.7656 22.2031L14.2383 22.7305L14.1602 22.7891V22.8281L14.082 22.8672L13.7695 23.1797L13.6914 23.2383L13.7305 23.3164L15.3516 24.9375H15.3906L15.4297 25.0156L15.5273 25.0547L15.625 24.957V24.918H15.6641L15.8008 24.7617L16.0547 24.5078L16.1914 24.3516L16.6016 23.9414V23.9023H16.6406L16.6602 23.8242L14.9414 22.1055H14.8828Z" fill="black"/>
<path d="M6.07422 28.5508H6.36719L6.66016 28.6094L6.89453 28.707L7.14844 28.8828L7.44141 29.1562L7.8125 29.5273V29.5664H7.85156V29.6055H7.89062L8.00781 29.7422L8.125 29.8398L8.20312 29.918V29.957L8.28125 29.9961V30.0352H8.32031V30.0742H8.35938V30.1133H8.39844V30.1523H8.4375L8.55469 30.2891L8.67188 30.3867L8.78906 30.5234L8.90625 30.6211L9.02344 30.7578L9.0625 30.7773V30.8164L9.14062 30.8555V30.8945L9.21875 30.9336V30.9727H9.25781V31.0117H9.29688V31.0508L9.375 31.0898L9.49219 31.2266L9.53125 31.2461V31.2852H9.57031V31.3242H9.60938L9.72656 31.4609L9.82422 31.5586L9.96094 31.7148L10.1172 32.0078L10.1953 32.3008L10.2148 32.6133L10.1562 32.9453L10.0195 33.2578L9.88281 33.4531L9.82422 33.5312H9.78516L9.74609 33.6094L9.33594 34.0195L9.12109 34.1953L8.82812 34.3516L8.55469 34.4297L8.4375 34.4492H8.125L7.8125 34.3711L7.5 34.2148L7.28516 34.0391L4.66797 31.4219L4.49219 31.168L4.39453 30.9727L4.31641 30.6797V30.25L4.39453 29.957L4.53125 29.6836L4.6875 29.4883L5.3125 28.8633L5.58594 28.6875L5.83984 28.5898L6.07422 28.5508ZM6.15234 29.7422L5.99609 29.8594L5.56641 30.2891L5.50781 30.3867V30.5234L5.58594 30.6602L8.125 33.1992L8.30078 33.2578L8.45703 33.1992L8.98438 32.6719L9.00391 32.6133V32.457L8.92578 32.3398L6.79688 30.2109L6.69922 30.0938H6.66016L6.62109 30.0156L6.48438 29.8789L6.32812 29.7617L6.19141 29.7422H6.15234Z" fill="black"/>
<path d="M9.60938 24.9961H9.94141L10.2148 25.0547L10.4102 25.1328L10.6055 25.25L10.8594 25.4648L11.0352 25.6406L11.1719 25.8555L11.2109 25.9922V26.168L11.1523 26.3438L11.0156 26.5195L10.8203 26.6367L10.7422 26.6562H10.4688L10.293 26.5781L9.98047 26.3047V26.2656L9.88281 26.2266L9.84375 26.207H9.70703L9.55078 26.3242L9.14062 26.7344L9.08203 26.8516V26.9688L9.19922 27.1445L11.6602 29.6055L11.7578 29.6641H11.9531L12.1484 29.4883L12.5 29.1367L12.5391 29.0586V28.8828L12.4023 28.707L12.1289 28.4336L12.0312 28.2188L12.0117 28.082L12.0508 27.8672L12.168 27.6719L12.3438 27.5352L12.5391 27.4766H12.6758L12.8711 27.5352L13.0859 27.6914L13.3594 27.9648L13.5156 28.1602L13.6719 28.4531L13.75 28.7461V29.2148L13.6719 29.5078L13.5156 29.8008L13.2812 30.0742L12.9102 30.4453H12.8711V30.4844L12.6172 30.6797L12.3633 30.7969L12.0898 30.875L11.7773 30.8945L11.5039 30.8555L11.2305 30.7578L10.9766 30.6016L10.6641 30.3086L8.24219 27.8867L8.06641 27.6523L7.92969 27.3594L7.87109 27.125V26.7148L7.94922 26.4023L8.08594 26.1289L8.16406 26.0117H8.20312L8.24219 25.9336L8.86719 25.3086L9.14062 25.1328L9.39453 25.0352L9.60938 24.9961Z" fill="black"/>
<path d="M10.957 34.1758H11.2305L11.4062 34.2539L11.5625 34.3906L11.6797 34.625V34.8984L11.6016 35.0938L11.4648 35.25L11.2305 35.3672L11.1328 35.3867H10.9961L10.8008 35.3281L10.6445 35.2109L10.5078 34.9961L10.4688 34.8594V34.7227L10.5273 34.5273L10.6445 34.3516L10.8398 34.2148L10.957 34.1758Z" fill="black"/>
<path d="M12.8711 33.4141H13.0078L13.2031 33.4727L13.3789 33.5898L13.3984 33.6484H13.4375L13.5352 33.8438L13.5547 33.9023V34.1758L13.457 34.3711L13.3594 34.4883L13.2422 34.5664L13.0469 34.625H12.8516L12.6562 34.5469L12.5 34.4102L12.3828 34.2344L12.3438 34.0781L12.3633 33.8438L12.4414 33.6875L12.5586 33.5508L12.7148 33.4531L12.8711 33.4141Z" fill="black"/>
<path d="M13.6523 31.5391H13.7891L13.9844 31.5977L14.1602 31.7148L14.2969 31.9297L14.3164 32.0078V32.2812L14.1992 32.5156L14.0625 32.6523L13.8281 32.75H13.5938L13.3984 32.6719L13.2422 32.5352L13.125 32.3008V32.0078L13.2031 31.832L13.3398 31.6758L13.4961 31.5781L13.6523 31.5391Z" fill="black"/>
</svg>
