<svg width="25" height="24" viewBox="0 0 25 24" fill="none" xmlns="http://www.w3.org/2000/svg">
<path d="M22.5984 24L14.1984 15.6C13.5318 16.1333 12.7651 16.5556 11.8984 16.8667C11.0318 17.1778 10.1095 17.3333 9.13175 17.3333C6.70953 17.3333 4.65953 16.4944 2.98175 14.8167C1.30398 13.1389 0.465088 11.0889 0.465088 8.66667C0.465088 6.24444 1.30398 4.19444 2.98175 2.51667C4.65953 0.838889 6.70953 0 9.13175 0C11.554 0 13.604 0.838889 15.2818 2.51667C16.9595 4.19444 17.7984 6.24444 17.7984 8.66667C17.7984 9.64445 17.6429 10.5667 17.3318 11.4333C17.0206 12.3 16.5984 13.0667 16.0651 13.7333L24.4651 22.1333L22.5984 24ZM9.13175 14.6667C10.7984 14.6667 12.2151 14.0833 13.3818 12.9167C14.5484 11.75 15.1318 10.3333 15.1318 8.66667C15.1318 7 14.5484 5.58333 13.3818 4.41667C12.2151 3.25 10.7984 2.66667 9.13175 2.66667C7.46509 2.66667 6.04842 3.25 4.88175 4.41667C3.71509 5.58333 3.13175 7 3.13175 8.66667C3.13175 10.3333 3.71509 11.75 4.88175 12.9167C6.04842 14.0833 7.46509 14.6667 9.13175 14.6667Z" fill="#E8EAED"/>
</svg>
