<svg width="24" height="24" viewBox="0 0 24 24" fill="none" xmlns="http://www.w3.org/2000/svg">
<path d="M12.6 15.6C13.44 15.6 14.15 15.31 14.73 14.73C15.31 14.15 15.6 13.44 15.6 12.6V6H19.2V3.6H14.4V10.2C14.14 10 13.86 9.85 13.56 9.75C13.26 9.65 12.94 9.6 12.6 9.6C11.76 9.6 11.05 9.89 10.47 10.47C9.89 11.05 9.6 11.76 9.6 12.6C9.6 13.44 9.89 14.15 10.47 14.73C11.05 15.31 11.76 15.6 12.6 15.6ZM7.2 19.2C6.54 19.2 5.975 18.965 5.505 18.495C5.035 18.025 4.8 17.46 4.8 16.8V2.4C4.8 1.74 5.035 1.175 5.505 0.705C5.975 0.235 6.54 0 7.2 0H21.6C22.26 0 22.825 0.235 23.295 0.705C23.765 1.175 24 1.74 24 2.4V16.8C24 17.46 23.765 18.025 23.295 18.495C22.825 18.965 22.26 19.2 21.6 19.2H7.2ZM7.2 16.8H21.6V2.4H7.2V16.8ZM2.4 24C1.74 24 1.175 23.765 0.705 23.295C0.235 22.825 0 22.26 0 21.6V4.8H2.4V21.6H19.2V24H2.4Z" fill="black"/>
</svg>
